<svg width="121" height="40" viewBox="0 0 121 40" fill="none" xmlns="http://www.w3.org/2000/svg">
<path d="M0 0H13.6661C16.411 0 19.0792 0.905704 21.2568 2.57664C22.9306 3.86092 24.4546 5.4624 25.0828 7.45516C25.3998 8.4608 24.889 9.46173 23.8779 9.73264C22.8668 10.0036 21.8433 9.3891 21.3597 8.4608C20.7783 7.34487 19.9574 6.36183 18.9471 5.58663C17.4321 4.42413 15.5758 3.79401 13.6661 3.79401V3.79053L3.7906 3.79053V21.1686H13.6661V21.1651C15.5758 21.1651 17.4321 20.535 18.9471 19.3725C19.9574 18.5973 20.7783 17.6143 21.3597 16.4983C21.8433 15.57 22.8668 14.9556 23.8779 15.2265C24.889 15.4974 25.3998 16.4983 25.0828 17.504C24.4546 19.4967 22.9306 21.0982 21.2568 22.3825C19.0792 24.0534 16.411 24.9591 13.6661 24.9591L3.7906 24.9591V39.9002H0V0Z" fill="#D4D4D4"/>
<path d="M97.7894 39.3817V0H101.417V16.1839H101.499C102.944 12.7179 106.244 10.5072 110.772 10.5072C116.909 10.5072 121 14.9558 121 21.9151V39.3817H117.372V22.4882C117.372 16.8935 114.427 13.7277 109.599 13.7277C104.69 13.7277 101.417 17.3847 101.417 22.652V39.3817H97.7894Z" fill="#D4D4D4"/>
<path d="M40.9765 39.3817V10.9985H44.5767V15.8291H44.6858C46.1041 12.7725 49.2952 10.5073 53.8773 10.5073C60.1505 10.5073 63.8598 14.5464 63.8598 21.2055V39.3817H60.2596V21.806C60.2596 16.5387 57.6412 13.7277 52.8136 13.7277C47.8769 13.7277 44.5767 17.2756 44.5767 22.5701V39.3817H40.9765Z" fill="#D4D4D4"/>
<path d="M32.6577 5.86768C31.3213 5.86768 30.2576 4.80331 30.2576 3.46602C30.2576 2.12873 31.3213 1.09166 32.6577 1.09166C33.9669 1.09166 35.0306 2.12873 35.0306 3.46602C35.0306 4.80331 33.9669 5.86768 32.6577 5.86768ZM30.8303 39.3817V10.9985H34.4579V39.3817H30.8303Z" fill="#D4D4D4"/>
<path d="M68.5301 25.187C68.5301 25.2037 68.5301 25.2203 68.5301 25.2369C68.5301 25.2535 68.5301 25.2701 68.5301 25.2868V25.3414C68.5301 34.3495 73.7354 40 81.4481 40C87.7123 40 92.827 36.3597 93.8469 29.9896C94.0169 28.9277 93.2338 27.9302 92.1213 27.9302C91.1979 27.9302 90.4297 28.6147 90.2028 29.5097C89.0291 34.1381 85.8048 36.7789 81.4481 36.7789C75.9157 36.7789 72.2365 32.4933 72.2365 25.3414V25.2868C72.2365 25.2701 72.2365 25.2535 72.2366 25.2369C72.2365 25.2203 72.2365 25.2037 72.2365 25.187V25.1324C72.2365 17.9806 75.9157 13.6949 81.4481 13.6949C85.8048 13.6949 89.0291 16.3357 90.2028 20.9641C90.4297 21.8591 91.1979 22.5436 92.1213 22.5436C93.2338 22.5436 94.0169 21.5461 93.8469 20.4842C92.827 14.1141 87.7123 10.4738 81.4481 10.4738C73.7354 10.4738 68.5301 16.1243 68.5301 25.1324V25.187Z" fill="#D4D4D4"/>
</svg>
